<svg width="569" height="209" viewBox="0 0 569 209" fill="none" xmlns="http://www.w3.org/2000/svg">
<path d="M91.2966 48.5333C93.6164 49.8027 96.2813 50.5227 99.1129 50.5227C108.131 50.5227 115.439 43.2167 115.439 34.2018C115.439 25.1868 108.131 17.8809 99.1129 17.8809C94.511 17.8809 90.3565 19.7869 87.3884 22.8488C85.0685 21.5793 82.4037 20.8593 79.5721 20.8593C70.5541 20.8593 63.2457 28.1653 63.2457 37.1802C63.2457 37.2522 63.2495 37.3242 63.2495 37.4C60.2662 34.1374 55.9714 32.0911 51.2028 32.0911C45.9527 32.0911 41.2864 34.5693 38.2994 38.4194C37.2835 30.3821 30.4262 24.1637 22.1095 24.1637C13.0915 24.1637 5.7831 31.4696 5.7831 40.4846C5.7831 49.4996 13.0915 56.8055 22.1095 56.8055C27.3595 56.8055 32.0258 54.3273 35.0129 50.4772C36.0288 58.5145 42.8861 64.7329 51.2028 64.7329C52.3627 64.7329 53.4923 64.6117 54.584 64.3805C55.7364 69.5947 59.383 73.8692 64.2085 75.8965C60.0123 78.8484 57.2678 83.7254 57.2678 89.2465C57.2678 93.07 58.587 96.579 60.7856 99.3604C59.7242 101.524 59.1252 103.957 59.1252 106.53C59.1252 109.535 59.9402 112.347 61.3579 114.764C54.3945 116.629 49.2657 122.98 49.2657 130.528C49.2657 135.883 51.8434 140.631 55.8274 143.609C52.2414 146.288 49.7964 150.404 49.3453 155.102C47.4462 154.329 45.3727 153.901 43.2007 153.901C37.2494 153.901 32.0448 157.084 29.1904 161.84C26.1958 158.214 21.666 155.906 16.5979 155.906C7.57988 155.906 0.271484 163.212 0.271484 172.227C0.271484 181.242 7.57988 188.548 16.5979 188.548C22.5492 188.548 27.7538 185.365 30.6081 180.609C33.6027 184.235 38.1326 186.543 43.2007 186.543C48.6403 186.543 53.4544 183.883 56.4187 179.794C57.4573 187.809 64.3033 194.001 72.6048 194.001C74.629 194.001 76.5623 193.629 78.3515 192.958C79.8563 200.416 86.4483 206.036 94.3518 206.036C103.37 206.036 110.678 198.73 110.678 189.715C110.678 180.7 103.37 173.394 94.3518 173.394C92.3276 173.394 90.3944 173.765 88.6052 174.436C87.6424 169.673 84.606 165.663 80.478 163.386C81.3991 161.344 81.9147 159.077 81.9147 156.69C81.9147 151.336 79.337 146.588 75.353 143.609C79.337 140.635 81.9147 135.883 81.9147 130.528C81.9147 127.523 81.0997 124.711 79.682 122.294C86.6454 120.429 91.7742 114.078 91.7742 106.53C91.7742 102.706 90.455 99.1975 88.2564 96.4161C89.3178 94.2523 89.9167 91.8195 89.9167 89.2465C89.9167 82.4711 85.7849 76.6582 79.9018 74.1913C84.0981 71.2393 86.8425 66.3624 86.8425 60.8412C86.8425 57.8703 86.0465 55.0889 84.6591 52.6902C87.2064 51.8528 89.4733 50.4128 91.2966 48.5333Z" fill="black"/>
<path d="M241.276 149.091C232.258 149.091 224.949 156.397 224.949 165.412C224.949 166.325 225.029 167.223 225.173 168.095C224.297 167.951 223.403 167.871 222.489 167.871C214.426 167.871 207.736 173.714 206.409 181.392C203.426 178.14 199.139 176.102 194.378 176.102C192.399 176.102 190.5 176.454 188.745 177.098C187.251 169.625 180.652 163.991 172.737 163.991C170.906 163.991 169.151 164.298 167.506 164.851C169.166 162.297 170.133 159.25 170.133 155.976C170.133 147.442 163.582 140.447 155.235 139.723C156.183 137.654 156.717 135.354 156.717 132.933C156.717 126.191 152.627 120.405 146.793 117.915C148.105 115.566 148.856 112.857 148.856 109.977C148.856 105.107 146.721 100.738 143.336 97.7482C152.343 97.7368 159.64 90.4347 159.64 81.4273C159.64 81.0256 159.621 80.6277 159.591 80.2336C165.557 79.453 170.508 75.4552 172.646 70.0364C175.421 72.2153 178.916 73.5188 182.718 73.5188C189.393 73.5188 195.124 69.5134 197.657 63.7801C200.022 69.8772 205.943 74.2009 212.88 74.2009C215.768 74.2009 218.482 73.4468 220.836 72.1319C220.833 72.238 220.829 72.3479 220.829 72.454C220.829 81.469 228.137 88.7749 237.155 88.7749C246.173 88.7749 253.482 81.469 253.482 72.454C253.482 63.439 246.173 56.1331 237.155 56.1331C234.267 56.1331 231.553 56.8871 229.199 58.2021C229.202 58.096 229.206 57.9861 229.206 57.88C229.206 48.865 221.898 41.5591 212.88 41.5591C206.204 41.5591 200.473 45.5644 197.941 51.2978C195.575 45.2007 189.654 40.877 182.718 40.877C175.815 40.877 169.916 45.1628 167.528 51.2144C164.754 49.0355 161.259 47.732 157.457 47.732C148.439 47.732 141.13 55.0379 141.13 64.0529C141.13 64.4546 141.149 64.8525 141.18 65.2466C133.174 66.2924 126.987 73.1323 126.987 81.4235C126.987 86.2929 129.121 90.662 132.507 93.6519C123.5 93.6632 116.203 100.965 116.203 109.973C116.203 116.714 120.293 122.501 126.127 124.99C124.815 127.34 124.065 130.049 124.065 132.929C124.065 141.463 130.615 148.458 138.962 149.182C138.014 151.251 137.48 153.551 137.48 155.972C137.48 164.987 144.788 172.293 153.806 172.293C155.637 172.293 157.392 171.986 159.037 171.433C157.377 173.987 156.41 177.034 156.41 180.308C156.41 189.323 163.719 196.629 172.737 196.629C174.715 196.629 176.615 196.276 178.37 195.632C179.863 203.105 186.463 208.74 194.378 208.74C202.44 208.74 209.131 202.896 210.458 195.219C213.441 198.47 217.728 200.509 222.489 200.509C231.507 200.509 238.815 193.203 238.815 184.188C238.815 183.275 238.736 182.377 238.592 181.505C239.467 181.649 240.362 181.729 241.276 181.729C250.294 181.729 257.602 174.423 257.602 165.408C257.602 156.4 250.294 149.091 241.276 149.091Z" fill="black"/>
<path d="M401.831 173.325C402.706 171.882 403.374 170.279 403.775 168.543C405.811 159.763 400.337 150.994 391.554 148.963C390.375 148.69 389.2 148.558 388.04 148.543C388.465 147.088 388.7 145.549 388.7 143.957C388.7 134.943 381.392 127.637 372.374 127.637C370.478 127.637 368.659 127.962 366.964 128.557C367.559 126.864 367.885 125.045 367.885 123.15C367.885 114.499 361.153 107.428 352.643 106.871C357.56 104.059 360.873 98.769 360.873 92.7022C360.873 89.9662 360.194 87.3894 359.008 85.1272C359.838 85.256 360.691 85.328 361.559 85.328C370.577 85.328 377.885 78.022 377.885 69.0071C377.885 61.3487 372.609 54.9257 365.49 53.1674C367.468 50.4656 368.64 47.1385 368.64 43.531C368.64 34.516 361.331 27.2101 352.313 27.2101C347.844 27.2101 343.8 29.0062 340.85 31.9127C341.051 30.8896 341.161 29.8285 341.161 28.7448C341.161 19.7298 333.853 12.4238 324.835 12.4238C316.871 12.4238 310.241 18.1269 308.804 25.6716C305.81 22.2422 301.412 20.0708 296.5 20.0708C287.482 20.0708 280.173 27.3768 280.173 36.3917C280.173 40.2001 281.481 43.6977 283.668 46.4753C281.845 49.109 280.772 52.3034 280.772 55.7518C280.772 62.5272 284.904 68.3401 290.787 70.807C286.591 73.759 283.847 78.6359 283.847 84.1571C283.847 87.9806 285.166 91.4896 287.364 94.271C286.303 96.4347 285.704 98.8675 285.704 101.44C285.704 104.445 286.519 107.257 287.937 109.675C280.973 111.539 275.844 117.89 275.844 125.439C275.844 130.793 278.422 135.541 282.406 138.52C278.422 141.494 275.844 146.246 275.844 151.601C275.844 157.758 279.256 163.117 284.294 165.898C283.373 167.941 282.857 170.207 282.857 172.594C282.857 181.609 290.166 188.915 299.184 188.915C308.202 188.915 315.51 181.609 315.51 172.594C315.51 166.436 312.098 161.078 307.061 158.297C307.982 156.254 308.497 153.988 308.497 151.601C308.497 146.246 305.92 141.498 301.936 138.52C305.92 135.545 308.497 130.793 308.497 125.439C308.497 122.434 307.682 119.622 306.265 117.204C307.754 116.806 309.161 116.204 310.449 115.423C311.283 123.654 318.239 130.077 326.692 130.077C330.055 130.077 333.178 129.061 335.775 127.318C337.617 134.313 343.985 139.475 351.563 139.475C353.458 139.475 355.278 139.149 356.972 138.554C356.377 140.248 356.051 142.067 356.051 143.961C356.051 152.919 363.272 160.187 372.211 160.278C372.123 160.578 372.044 160.881 371.972 161.188C370.031 169.574 374.936 177.941 383.029 180.449C382.154 181.893 381.486 183.496 381.085 185.232C379.049 194.012 384.523 202.78 393.306 204.811C402.089 206.846 410.86 201.374 412.892 192.594C414.829 184.201 409.924 175.834 401.831 173.325ZM318.27 99.7694C317.947 96.5939 316.712 93.695 314.835 91.3228C315.897 89.1591 316.496 86.7263 316.496 84.1533C316.496 77.3778 312.364 71.5649 306.481 69.098C310.677 66.1461 313.421 61.2691 313.421 55.748C313.421 51.9396 312.114 48.442 309.926 45.6644C311.192 43.8341 312.095 41.731 312.527 39.4612C315.521 42.8906 319.918 45.0619 324.831 45.0619C329.3 45.0619 333.345 43.2657 336.294 40.3592C336.093 41.3824 335.983 42.4434 335.983 43.5272C335.983 51.1856 341.26 57.6086 348.379 59.3668C346.4 62.0687 345.229 65.3958 345.229 69.0033C345.229 71.7392 345.907 74.316 347.094 76.5783C346.264 76.4494 345.411 76.3774 344.543 76.3774C335.525 76.3774 328.216 83.6834 328.216 92.6984C328.216 94.4036 328.478 96.0482 328.963 97.5943C328.216 97.492 327.458 97.4313 326.685 97.4313C323.607 97.4313 320.726 98.2877 318.27 99.7694Z" fill="black"/>
<path d="M556.301 82.5621C558.878 79.6783 560.444 75.8738 560.444 71.6979C560.444 67.0142 558.465 62.7928 555.304 59.8181C563.002 58.507 568.867 51.8073 568.867 43.7359C568.867 35.3197 562.491 28.3927 554.307 27.5135C556.717 24.6715 558.173 20.992 558.173 16.9752C558.173 7.96025 550.865 0.654297 541.847 0.654297C532.829 0.654297 525.52 7.96025 525.52 16.9752C525.52 25.3915 531.896 32.3185 540.08 33.1976C537.669 36.0397 536.214 39.7192 536.214 43.7359C536.214 48.4196 538.193 52.641 541.354 55.6157C533.655 56.9268 527.791 63.6265 527.791 71.6979C527.791 77.9693 531.331 83.4109 536.521 86.1431C533.943 89.0268 532.378 92.8313 532.378 97.0073C532.378 101.573 534.254 105.7 537.279 108.663C537.029 108.652 536.775 108.644 536.521 108.644C527.503 108.644 520.195 115.95 520.195 124.965C520.195 128.952 521.627 132.605 524.004 135.439C520.46 137.561 517.795 140.987 516.658 145.053C514.808 144.325 512.799 143.924 510.695 143.924C509.721 143.924 508.773 144.015 507.845 144.178C508.91 142.01 509.509 139.574 509.509 136.997C509.509 131.222 506.506 126.151 501.977 123.249C504.403 120.399 505.87 116.712 505.87 112.676C505.87 107.705 503.641 103.256 500.134 100.262C503.645 97.2687 505.87 92.82 505.87 87.8483C505.87 80.5385 501.059 74.3505 494.429 72.2739C497.447 69.3106 499.323 65.1915 499.323 60.6291C499.323 54.4182 495.851 49.0183 490.745 46.2597C492.625 43.5995 493.732 40.3596 493.732 36.8544C493.732 27.8394 486.424 20.5335 477.406 20.5335C474.718 20.5335 472.182 21.1852 469.949 22.3372C470.139 21.3444 470.241 20.325 470.241 19.2792C470.241 10.2642 462.933 2.95825 453.915 2.95825C444.897 2.95825 437.589 10.2642 437.589 19.2792C437.589 19.715 437.611 20.1432 437.645 20.5676C435.727 19.7756 433.623 19.336 431.421 19.336C422.403 19.336 415.095 26.642 415.095 35.6569C415.095 41.4585 418.127 46.5514 422.687 49.4428C416.641 51.8339 412.365 57.7264 412.365 64.6193C412.365 69.0832 414.158 73.1265 417.062 76.0708C415.807 78.3824 415.091 81.0312 415.091 83.8467C415.091 90.535 419.117 96.2797 424.875 98.7996C423.684 101.062 423.01 103.639 423.01 106.375C423.01 111.475 425.352 116.03 429.018 119.02C422.252 121.013 417.312 127.266 417.312 134.674C417.312 143.689 424.621 150.995 433.639 150.995C442.657 150.995 449.965 143.689 449.965 134.674C449.965 129.573 447.622 125.018 443.957 122.029C450.723 120.035 455.662 113.783 455.662 106.375C455.662 99.6863 451.637 93.9416 445.879 91.4217C447.069 89.1594 447.744 86.5826 447.744 83.8467C447.744 79.3828 445.951 75.3395 443.047 72.3951C444.302 70.0836 445.018 67.4348 445.018 64.6193C445.018 58.8177 441.986 53.7248 437.426 50.8335C443.472 48.4424 447.747 42.5498 447.747 35.6569C447.747 35.2212 447.725 34.793 447.691 34.3685C449.609 35.1605 451.713 35.6001 453.915 35.6001C456.602 35.6001 459.138 34.9483 461.375 33.7964C461.185 34.7892 461.083 35.8085 461.083 36.8544C461.083 43.0652 464.555 48.4651 469.661 51.2238C467.781 53.8839 466.674 57.1239 466.674 60.6291C466.674 67.9388 471.485 74.1269 478.114 76.2035C475.097 79.1668 473.221 83.2859 473.221 87.8483C473.221 92.82 475.45 97.2687 478.956 100.262C475.446 103.256 473.221 107.705 473.221 112.676C473.221 118.451 476.223 123.522 480.753 126.424C478.327 129.274 476.86 132.961 476.86 136.997C476.86 146.012 484.168 153.318 493.186 153.318C494.16 153.318 495.108 153.227 496.037 153.064C494.971 155.231 494.373 157.668 494.373 160.245C494.373 169.26 501.681 176.566 510.699 176.566C518.189 176.566 524.501 171.518 526.419 164.644C528.269 165.372 530.278 165.773 532.381 165.773C541.399 165.773 548.708 158.467 548.708 149.452C548.708 145.466 547.275 141.813 544.898 138.979C549.659 136.129 552.847 130.922 552.847 124.969C552.847 120.403 550.967 116.276 547.946 113.313C548.196 113.324 548.45 113.332 548.708 113.332C557.726 113.332 565.034 106.026 565.034 97.011C565.03 90.7396 561.49 85.298 556.301 82.5621Z" fill="black"/>
</svg>
